<svg width="21" height="21" viewBox="0 0 21 21" fill="#939393" xmlns="http://www.w3.org/2000/svg">
<path fill-rule="evenodd" clip-rule="evenodd" d="M13.8279 11.2849H10.9999V14.1089C10.9999 14.5229 10.6639 14.8589 10.2499 14.8589C9.83594 14.8589 9.49994 14.5229 9.49994 14.1089V11.2849H6.67194C6.25794 11.2849 5.92194 10.9489 5.92194 10.5349C5.92194 10.1209 6.25794 9.78485 6.67194 9.78485H9.49994V6.96085C9.49994 6.54685 9.83594 6.21085 10.2499 6.21085C10.6639 6.21085 10.9999 6.54685 10.9999 6.96085V9.78485H13.8279C14.2419 9.78485 14.5779 10.1209 14.5779 10.5349C14.5779 10.9489 14.2419 11.2849 13.8279 11.2849ZM10.2499 0.297852C2.69094 0.297852 0.0129395 2.97585 0.0129395 10.5349C0.0129395 18.0939 2.69094 20.7719 10.2499 20.7719C17.8079 20.7719 20.4869 18.0939 20.4869 10.5349C20.4869 2.97585 17.8079 0.297852 10.2499 0.297852Z" 
fill="#5268e4"/>
</svg>
