<svg width="20" height="21" viewBox="0 0 20 21" fill="none" xmlns="http://www.w3.org/2000/svg">
<path fill-rule="evenodd" clip-rule="evenodd" d="M14.341 8.69179L9.591 13.4378C9.45 13.5788 9.26 13.6578 9.061 13.6578C8.862 13.6578 8.671 13.5788 8.53 13.4378L6.159 11.0648C5.866 10.7718 5.866 10.2968 6.159 10.0038C6.453 9.71079 6.928 9.71279 7.22 10.0038L9.061 11.8468L13.28 7.63079C13.573 7.33779 14.048 7.33879 14.341 7.63079C14.634 7.92379 14.634 8.39879 14.341 8.69179ZM10.25 0.78479C3.052 0.78479 0.5 3.33679 0.5 10.5348C0.5 17.7328 3.052 20.2848 10.25 20.2848C17.448 20.2848 20 17.7328 20 10.5348C20 3.33679 17.448 0.78479 10.25 0.78479Z" 
fill="#5268e4"/>
</svg>
