<svg width="19" height="21" viewBox="0 0 19 21" fill="none" xmlns="http://www.w3.org/2000/svg">
<path fill-rule="evenodd" clip-rule="evenodd" d="M16.349 8.20172C16.349 7.92572 16.125 7.70172 15.849 7.70172H2.65304C2.37604 7.70172 2.15304 7.92572 2.15304 8.20172C2.15304 9.19872 2.13504 10.1277 2.11804 10.9887C2.04404 14.7377 1.99504 17.2147 3.51004 18.7597C4.58604 19.8567 6.35304 20.3467 9.24004 20.3467C12.13 20.3467 13.9 19.8557 14.979 18.7567C16.501 17.2047 16.453 14.7157 16.382 10.9457C16.366 10.0967 16.349 9.18172 16.349 8.20172Z" fill="#e45e52"/>
<path fill-rule="evenodd" clip-rule="evenodd" d="M17.325 4.37851H13.184C13.143 3.72451 12.962 2.80251 12.311 2.05451C11.623 1.26351 10.593 0.861511 9.24905 0.861511C7.90605 0.861511 6.87605 1.26351 6.18805 2.05451C5.53705 2.80251 5.35505 3.72451 5.31405 4.37851H1.17505C0.761049 4.37851 0.425049 4.71451 0.425049 5.12851C0.425049 5.54251 0.761049 5.87851 1.17505 5.87851H17.325C17.739 5.87851 18.075 5.54251 18.075 5.12851C18.075 4.71451 17.739 4.37851 17.325 4.37851Z" 
fill="#e45e52"/>
</svg>
